<?xml version="1.0" encoding="utf-8"?>
<!-- Generator: Adobe Illustrator 19.0.0, SVG Export Plug-In . SVG Version: 6.00 Build 0)  -->
<svg version="1.1" id="Layer_1" xmlns="http://www.w3.org/2000/svg" xmlns:xlink="http://www.w3.org/1999/xlink" x="0px" y="0px"
	 viewBox="0 0 144 252" style="enable-background:new 0 0 144 252;" xml:space="preserve">
<style type="text/css">
	.st0{fill:none;stroke:#010101;stroke-miterlimit:10;}
	.st1{fill:none;stroke:#3A53A4;stroke-miterlimit:10;}
	.st2{fill:none;stroke:#ED2224;stroke-miterlimit:10;}
	.st3{fill:#FFFFFF;}
</style>
<line id="XMLID_22379_" class="st0" x1="144" y1="0" x2="0" y2="0"/>
<line id="XMLID_22378_" class="st0" x1="144" y1="252" x2="0" y2="252"/>
<line id="XMLID_22377_" class="st0" x1="0" y1="252" x2="0" y2="0"/>
<line id="XMLID_22376_" class="st0" x1="144" y1="252" x2="144" y2="0"/>
<g id="XMLID_22371_">
	<path id="XMLID_22373_" class="st1" d="M15.6,225l-2.4,7.2 M15.6,225l2.4,7.2"/>
	<line id="XMLID_22372_" class="st1" x1="14.2" y1="229.8" x2="17.1" y2="229.8"/>
</g>
<g id="XMLID_22366_">
	<line id="XMLID_22370_" class="st1" x1="126" y1="225" x2="126" y2="232.2"/>
	<path id="XMLID_22367_" class="st1" d="M126,225h2.7l0.9,0.3l0.3,0.3l0.3,0.7v0.7l-0.3,0.7l-0.3,0.3l-0.9,0.3 M126,232.2h2.7
		l0.9-0.3l0.3-0.3l0.3-0.7v-1l-0.3-0.7l-0.3-0.3l-0.9-0.3H126"/>
</g>
<path id="XMLID_22353_" class="st1" d="M67.5,51.5h7.1 M67.5,54.2v-5.5 M67.5,46.7h7.1 M70.9,46.7v-3.5L70.5,42l-0.3-0.4l-0.7-0.4
	h-0.7l-0.7,0.4L67.8,42l-0.3,1.2v3.5 M70.9,44l3.7-2.8 M67.5,36.5l7.1,3.1 M67.5,36.5l7.1-3.1 M72.2,38.5v-3.9 M73.6,31.8l0.7-0.8
	l0.3-1.2v-1.6l-0.3-1.2l-0.7-0.8h-1l-0.7,0.4l-0.3,0.4l-0.3,0.8l-0.7,2.4L70.2,31l-0.3,0.4l-0.7,0.4h-0.7L67.8,31l-0.3-1.2v-1.6
	l0.3-1.2l0.7-0.8 M67.5,23.5h7.1 M67.5,18h7.1 M70.9,23.5V18"/>
<path id="XMLID_22349_" class="st2" d="M18,234l0,18 M9.7,234l0,18 M9.7,234l8.3,0"/>
<path id="XMLID_22345_" class="st2" d="M134.3,234l0,18 M126,234l0,18 M126,234l8.3,0"/>
<line id="XMLID_22344_" class="st2" x1="76.9" y1="9" x2="85.5" y2="9"/>
<line id="XMLID_22343_" class="st2" x1="68.7" y1="9" x2="75.9" y2="9"/>
<line id="XMLID_22342_" class="st2" x1="58.5" y1="9" x2="67.1" y2="9"/>
<line id="XMLID_22341_" class="st2" x1="72" y1="9" x2="72" y2="0"/>
<line id="XMLID_22340_" class="st2" x1="85.5" y1="22" x2="85.5" y2="45"/>
<line id="XMLID_22339_" class="st2" x1="85.5" y1="9" x2="85.5" y2="20.5"/>
<line id="XMLID_22338_" class="st2" x1="58.5" y1="22" x2="58.5" y2="45"/>
<line id="XMLID_22337_" class="st2" x1="58.5" y1="9" x2="58.5" y2="20.5"/>
<g id="XMLID_22333_">
	<line id="XMLID_22336_" class="st1" x1="33.6" y1="37.8" x2="31.3" y2="45"/>
	<line id="XMLID_22335_" class="st1" x1="33.6" y1="37.8" x2="36" y2="45"/>
	<line id="XMLID_22334_" class="st1" x1="32.2" y1="42.6" x2="35.1" y2="42.6"/>
</g>
<g id="XMLID_22329_">
	<line id="XMLID_22332_" class="st1" x1="108" y1="37.8" x2="108" y2="45"/>
	<polyline id="XMLID_22331_" class="st1" points="108,37.8 110.7,37.8 111.5,38.1 111.8,38.4 112.1,39.1 112.1,39.8 111.8,40.5 
		111.5,40.9 110.7,41.2 	"/>
	<polyline id="XMLID_22330_" class="st1" points="108,41.2 110.7,41.2 111.5,41.6 111.8,41.9 112.1,42.6 112.1,43.6 111.8,44.3 
		111.5,44.7 110.7,45 108,45 	"/>
</g>
<line id="XMLID_22328_" class="st2" x1="72" y1="63" x2="72" y2="72"/>
<path id="XMLID_22327_" class="st0" d="M97.4,73"/>
<path id="XMLID_22326_" class="st2" d="M0,180c0,0,3.9,4.5,5.8,0c0.4-0.8,1-5,1.9-11.2"/>
<path id="XMLID_22325_" class="st2" d="M16.2,126c-4.1,15.5-6.7,31.1-8.3,41.6"/>
<path id="XMLID_22324_" class="st2" d="M28.6,92.2c-5.1,9.7-8.6,19.5-11.8,31.5"/>
<path id="XMLID_22323_" class="st2" d="M51.1,72c-8.6,1.1-15.5,8.1-21.2,18"/>
<g id="XMLID_22317_">
	<g id="XMLID_22319_">
		<path id="XMLID_22322_" class="st2" d="M136.3,168.7c1,6.3,1.6,10.4,1.9,11.3c1.9,4.5,5.8,0,5.8,0"/>
		<path id="XMLID_22321_" class="st2" d="M127.2,123.7c-3.2-12.3-6.8-22.3-12.1-32.1"/>
		<path id="XMLID_22320_" class="st2" d="M136.1,167.5c-1.7-10.6-4.3-26.1-8.3-41.5"/>
	</g>
	<path id="XMLID_22318_" class="st2" d="M114,89.9c-5.7-9.9-12.6-16.8-21.1-17.9"/>
</g>
<line id="XMLID_22316_" class="st2" x1="52.2" y1="72" x2="91.8" y2="72"/>
<line id="XMLID_22315_" class="st2" x1="85.5" y1="45" x2="101.8" y2="37.4"/>
<line id="XMLID_22314_" class="st2" x1="58.5" y1="45" x2="42.2" y2="37.4"/>
<line id="XMLID_22313_" class="st2" x1="72" y1="63" x2="104.6" y2="47.8"/>
<line id="XMLID_22312_" class="st2" x1="72" y1="63" x2="39.4" y2="47.8"/>
<line id="XMLID_22311_" class="st2" x1="104.6" y1="47.8" x2="101.8" y2="37.4"/>
<line id="XMLID_22310_" class="st2" x1="39.4" y1="47.8" x2="42.2" y2="37.4"/>
<g id="XMLID_1_">
	<path id="XMLID_199_" class="st3" d="M35.7,162.6c0-24.1,0-48.3,0-72.4c24.1,0,48.3,0,72.4,0c0,24.1,0,48.3,0,72.4
		C84,162.6,59.9,162.6,35.7,162.6z M87.9,153.9c0,0.9,0,1.9,0,2.8c1.1,0,1.9,0,2.8,0c0-1,0-1.9,0-2.8c1.9,0,3.9,0,5.8,0
		c0,0.9,0,1.9,0,2.8c1.1,0,1.9,0,2.7,0c0-1,0-1.8,0-2.8c-1,0-1.9,0-2.8,0c0-1.9,0-3.9,0-5.8c0.9,0,1.9,0,2.8,0c0-1.1,0-1.9,0-2.7
		c-1,0-1.8,0-2.8,0c0,1,0,1.9,0,2.8c-1,0-2,0-2.9,0c0-0.9,0-1.9,0-3c-1.1,0-1.9,0-2.9,0c0-1.1,0-2,0-2.9c1.9,0,3.8,0,5.8,0
		c0-1.1,0.1-1.9,0.1-2.9c1,0,1.8,0,2.7,0c0.1-1,0.1-1.9,0.2-2.8c1-0.1,1.9-0.1,2.7-0.2c0-1,0-1.8,0-2.7c-1.9,0-3.7,0-5.6,0
		c-0.1,1-0.1,1.8-0.2,2.8c-2,0-3.9,0-5.7,0c0-1.9,0-3.9,0-5.8c3.8,0,7.6,0,11.5,0c0-1,0-1.9,0-2.8c-1-0.1-1.8-0.1-2.8-0.2
		c0-1,0-1.9,0-2.8c0.9,0,1.9,0,2.8,0c0-1.1,0-1.9,0-2.8c-1,0-1.9,0-2.8,0c0-0.9,0-1.9,0-2.8c-1.1,0-1.9,0-2.7,0c0,1,0,1.8,0,2.8
		c1,0,1.9,0,2.8,0c0,1,0,2,0,3c-0.9,0-1.9,0-2.8,0c-0.1,1.1-0.1,2-0.2,2.8c-1,0-1.8,0-2.7,0c-0.1-1-0.1-1.8-0.2-2.8
		c-1,0-1.9,0-2.8,0c0-1,0-2,0-2.9c0.9,0,1.9,0,2.8,0c0-1.1,0-1.9,0-2.7c-1,0-1.8,0-2.8,0c0,1,0,1.9,0,2.8c-0.9,0-1.9,0-3,0
		c0-1.1,0-2,0-2.8c-1,0-1.8,0-2.8,0c0,0.9-0.1,1.8-0.1,2.7c-1,0-1.9,0-2.8,0c-0.1-1-0.1-1.8-0.2-2.8c-2,0-3.9,0-5.7,0
		c0-1,0-2,0.1-2.9l0,0c0.9,0,1.9,0,2.8,0c0-2.1,0-3.9,0-5.9c-1.9,0-3.7,0-5.6,0c-0.1-1.1-0.1-2-0.2-2.9c0.9,0,1.9,0,3,0
		c0-1.9,0-3.7,0-5.6c1-0.1,1.9-0.1,2.8-0.2c0-1,0-1.8,0-2.8c-2,0-3.8,0-5.7,0c0-0.9,0-1.9,0-2.8c-1.1,0-1.9,0-2.7,0c0,1,0,1.8,0,2.8
		c1,0,1.9,0,2.8,0c0,2.9-0.1,5.8-0.1,8.7c-1,0-2,0.1-2.9,0.1c0-1.9,0-3.9,0-5.9c-1.1,0-1.9,0-2.8,0c0-0.9,0-1.9,0-2.8
		c-1.1,0-1.9,0-2.7,0c0,1,0,1.8,0,2.8c1,0,1.9,0,2.8,0c0,0.9,0,1.9,0,3c-1.1,0-2,0-2.8,0c0,1,0,1.8,0,2.9c1.9,0,3.8,0,5.7,0
		c0,0.9,0,1.8,0,2.9c-1.9,0-3.8,0-5.6,0c0,2,0,3.9,0,5.7c0.9,0,1.8,0,2.7,0c0.1-0.9,0.1-1.8,0.2-2.7c1,0,1.9,0,2.9,0
		c0,2,0,3.8,0,5.7c-3.8,0-7.7,0-11.6,0c0,1.1,0,2,0,2.9c-1,0-2,0-2.9,0c0-0.9,0-1.9,0-2.8c-5,0-9.7,0-14.3,0c0,1.9,0,3.7,0,5.6
		c1,0,1.8,0.1,2.7,0.1c0,1,0,1.8,0,2.8c-0.9,0-1.8,0.1-2.7,0.1c0,2,0,3.8,0,5.6c3.9,0,7.6,0,11.3,0c0-1,0-1.8,0-2.7
		c-1-0.1-1.9-0.1-2.7-0.2c0-1,0-1.8,0-2.7c1-0.1,1.8-0.1,2.7-0.2c0-1,0-1.8,0-2.8c-1.9,0-3.8,0-5.6,0c0-1.1,0-1.9,0-2.9
		c3,0,5.8,0,8.6,0c0,3.8,0,7.7,0,11.7c3,0,5.8,0,8.7,0c0,2,0,3.8,0,5.6c1,0.1,1.9,0.1,2.7,0.2c0,1,0,1.9,0,2.9c-1,0-1.8,0-2.6,0
		c0,4.9,0,9.6,0,14.3c0.9,0,1.8,0,2.8,0c0-1.9,0-3.7,0-5.6c1.1-0.1,1.9-0.1,3-0.2c0-2,0-3.8,0-5.6c1-0.1,1.8-0.1,2.7-0.1
		c0.1-1,0.1-1.9,0.2-2.8c1,0,1.9,0,2.8,0c0,0.9,0,1.9,0,2.9c1.1,0,2,0,2.9,0c0,1,0,2,0,2.9c-1.9,0-3.8,0-5.7,0c0,2,0,3.9,0,5.8
		c1.9,0,3.7,0,5.7,0c0,1,0,1.9,0,2.7c2,0,3.8,0,5.7,0c0-1,0-1.9,0-2.8C85.9,153.9,86.9,153.9,87.9,153.9z M41.6,116.1
		c6.8,0,13.4,0,20.1,0c0-6.7,0-13.4,0-20c-6.8,0-13.4,0-20.1,0C41.6,102.8,41.6,109.4,41.6,116.1z M102.3,96.1c-6.8,0-13.4,0-20,0
		c0,6.8,0,13.4,0,20c6.7,0,13.4,0,20,0C102.3,109.4,102.3,102.8,102.3,96.1z M61.7,136.7c-6.8,0-13.4,0-20,0c0,6.8,0,13.4,0,20
		c6.8,0,13.4,0,20,0C61.7,150,61.7,143.4,61.7,136.7z"/>
	<path id="XMLID_198_" d="M56,122.1c1,0,2,0,2.9,0l-0.1-0.1c0,0.9,0,1.9,0,3c1.1,0,2,0,2.8,0c0,1,0,1.8,0,2.7
		c-1,0.1-1.8,0.1-2.7,0.2c0,1,0,1.9,0,2.7c2,0,3.8,0,5.6,0c0.1-1,0.1-1.8,0.1-2.7c1-0.1,1.9-0.1,2.7-0.2c0.1-1,0.1-1.9,0.2-2.7
		c1,0,1.8,0,2.8,0c0,2.9,0,5.7,0,8.6c1.1,0,2,0,2.9,0l-0.1-0.1c0,0.9,0,1.9,0,2.8c-1.1,0.1-1.9,0.1-2.7,0.2c0,1,0,1.9,0,2.8
		c2,0,3.8,0,5.7,0c0,1,0,2-0.1,2.9l0.1-0.1c-0.9,0-1.8,0-2.8,0c-0.1,1-0.1,1.9-0.2,2.8c-0.9,0-1.7,0.1-2.7,0.1c0,1.8,0,3.7,0,5.6
		c-1.1,0.1-1.9,0.1-3,0.2c0,1.9,0,3.7,0,5.6c-1,0-1.8,0-2.8,0c0-4.7,0-9.5,0-14.3c0.9,0,1.7,0,2.6,0c0-1,0-1.9,0-2.9
		c-0.8-0.1-1.7-0.1-2.7-0.2c0-1.8,0-3.6,0-5.6c-2.9,0-5.7,0-8.7,0C56,129.7,56,125.9,56,122.1L56,122.1z"/>
	<path id="XMLID_195_" d="M41.6,116.1c0-6.7,0-13.3,0-20c6.7,0,13.3,0,20.1,0c0,6.6,0,13.3,0,20C55,116.1,48.4,116.1,41.6,116.1z
		 M58.8,113.3c0-4.9,0-9.6,0-14.3c-4.9,0-9.6,0-14.3,0c0,4.8,0,9.5,0,14.3C49.3,113.3,54,113.3,58.8,113.3z"/>
	<path id="XMLID_192_" d="M102.3,96.1c0,6.7,0,13.3,0,20c-6.7,0-13.3,0-20,0c0-6.6,0-13.3,0-20C88.8,96.1,95.5,96.1,102.3,96.1z
		 M99.3,113.3c0-4.9,0-9.6,0-14.3c-4.9,0-9.6,0-14.3,0c0,4.8,0,9.5,0,14.3C89.8,113.3,94.5,113.3,99.3,113.3z"/>
	<path id="XMLID_189_" d="M61.7,136.7c0,6.7,0,13.3,0,20c-6.7,0-13.3,0-20,0c0-6.6,0-13.3,0-20C48.3,136.7,54.9,136.7,61.7,136.7z
		 M58.8,153.8c0-4.9,0-9.6,0-14.3c-4.8,0-9.6,0-14.3,0c0,4.8,0,9.5,0,14.3C49.3,153.8,53.9,153.8,58.8,153.8z"/>
	<path id="XMLID_188_" d="M56,122c-2.8,0-5.7,0-8.6,0c0,1,0,1.8,0,2.9c1.8,0,3.7,0,5.6,0c0,1,0,1.8,0,2.8c-0.9,0.1-1.8,0.1-2.7,0.2
		c0,0.9,0,1.7,0,2.7c0.8,0.1,1.7,0.1,2.7,0.2c0,0.9,0,1.7,0,2.7c-3.7,0-7.5,0-11.3,0c0-1.8,0-3.6,0-5.6c0.9,0,1.7-0.1,2.7-0.1
		c0-0.9,0-1.8,0-2.8c-0.9,0-1.7-0.1-2.7-0.1c0-1.8,0-3.6,0-5.6c4.7,0,9.4,0,14.3,0C56,120.2,56,121.1,56,122L56,122z"/>
	<path id="XMLID_187_" d="M73.3,107.5c0.1,0.9,0.1,1.9,0.2,2.9c1.9,0,3.6,0,5.6,0c0,1.9,0,3.8,0,5.9c-0.9,0-1.8,0-2.8,0
		c0-0.9,0-1.9,0-2.8c-1.1,0-1.9,0-2.8,0c0,1,0,1.8,0,2.8c1,0,1.9,0,2.8,0c0,1,0,2-0.1,2.9l0.1-0.1c-1.9,0-3.9,0-5.8,0l0.1,0.1
		c0-1.9,0-3.7,0-5.7c-1,0-1.9,0-2.9,0c0,0.9-0.1,1.7-0.2,2.7c-0.9,0-1.7,0-2.7,0c0-1.8,0-3.7,0-5.7c1.9,0,3.7,0,5.6,0
		c0-1.1,0-2,0-2.9c0,0-0.1,0.1-0.1,0.1C71.4,107.6,72.4,107.6,73.3,107.5C73.3,107.5,73.3,107.5,73.3,107.5z"/>
	<path id="XMLID_186_" d="M90.7,142.3c0,0.9,0,1.8,0,2.9c1,0,1.8,0,2.9,0c0,1.1,0,2,0,3l0.1-0.1c-2.9,0-5.8,0-8.7,0
		c0,1.2,0,2.1,0,2.9L85,151c-1,0-2,0-2.9,0l0.1,0.1c0-0.9,0-1.8,0-2.9c-1.1,0-2,0-2.9,0l0.1,0.1c0-1,0-2,0-2.9l-0.1,0.1
		c0.9,0,1.8,0,2.9,0c0-1.1,0-2,0-2.9c0.9,0,1.9,0,3,0c0,1.1,0,2,0,2.8c1,0,1.8,0,2.7,0c0.1-1,0.1-1.8,0.2-2.8
		C89,142.3,89.9,142.3,90.7,142.3L90.7,142.3z"/>
	<path id="XMLID_185_" d="M76.2,119.2c1.9,0,3.7,0,5.7,0c0.1,0.9,0.1,1.8,0.2,2.8c0.9,0,1.8,0,2.8,0c0-0.9,0.1-1.8,0.1-2.7
		c0.9,0,1.7,0,2.8,0c0,0.9,0,1.7,0,2.8c1.1,0,2.1,0,3,0l-0.1-0.1c0,1,0,2,0,2.9l0.1-0.1c-3.9,0-7.8,0-11.6,0c0-0.9,0-1.9,0-2.9
		c-1-0.1-1.9-0.1-2.8-0.2C76.3,120.9,76.3,120,76.2,119.2L76.2,119.2z"/>
	<path id="XMLID_184_" d="M90.7,130.7c0,1.9,0,3.9,0,5.8l0.1-0.1c-3.9,0-7.8,0-11.6,0c0-0.9,0-1.9,0-2.8c1.1-0.1,2-0.1,2.9-0.2
		c0-1.1,0-1.9,0-2.8C85,130.7,87.9,130.7,90.7,130.7L90.7,130.7z"/>
	<path id="XMLID_183_" d="M90.7,136.6c1.9,0,3.7,0,5.7,0c0.1-1,0.1-1.8,0.2-2.8c1.9,0,3.7,0,5.6,0c0,0.9,0,1.7,0,2.7
		c-0.9,0-1.7,0.1-2.7,0.2c-0.1,0.9-0.1,1.8-0.2,2.8c-0.9,0-1.7,0-2.7,0c0,1-0.1,1.9-0.1,2.9c-2,0-3.9,0-5.8,0l0.1,0.1
		C90.8,140.4,90.8,138.4,90.7,136.6L90.7,136.6z"/>
	<path id="XMLID_182_" d="M84.9,153.9c0,0.9,0,1.8,0,2.8c-1.9,0-3.7,0-5.7,0c0-0.9,0-1.8,0-2.7c-2,0-3.8,0-5.7,0c0-1.9,0-3.8,0-5.8
		c1.9,0,3.8,0,5.7,0l-0.1-0.1c0,0.9,0,1.8,0,2.9c1.1,0,2,0,2.9,0L82,151c0,0.9,0,1.8,0,2.9C83.2,153.9,84.1,153.9,84.9,153.9
		L84.9,153.9z"/>
	<path id="XMLID_181_" d="M99.4,124.9c0,0.9,0,1.8,0,2.8c1,0.1,1.8,0.1,2.8,0.2c0,0.9,0,1.8,0,2.8c-3.9,0-7.7,0-11.5,0l0.1,0.1
		c0-1.9,0-3.9,0-5.8l-0.1,0.1c0.9,0,1.8,0,2.8,0c0.1,0.9,0.1,1.8,0.2,2.8c0.9,0,1.7,0,2.7,0c0.1-0.8,0.1-1.7,0.2-2.8
		C97.6,125,98.5,125,99.4,124.9L99.4,124.9z"/>
	<path id="XMLID_180_" d="M73.4,98.9c1.8,0,3.7,0,5.7,0c0,0.9,0,1.8,0,2.8c-0.9,0.1-1.7,0.1-2.8,0.2c0,1.9,0,3.7,0,5.6
		c-1.1,0-2.1,0-3,0c0,0,0.1,0.1,0.1,0.1C73.4,104.6,73.4,101.7,73.4,98.9L73.4,98.9z"/>
	<path id="XMLID_179_" d="M58.9,122.1c0-0.9,0-1.8,0-2.9c3.9,0,7.8,0,11.6,0l-0.1-0.1c0,0.9,0,1.9,0,2.9
		C66.4,122,62.7,122,58.9,122.1L58.9,122.1z"/>
	<path id="XMLID_178_" d="M67.6,101.8c0.9,0,1.8,0,2.8,0c0,2,0,3.9,0,5.9c0,0,0.1-0.1,0.1-0.1c-1.9,0-3.7,0-5.7,0c0-1,0-1.8,0-2.9
		c0.8,0,1.7,0,2.8,0C67.6,103.6,67.6,102.7,67.6,101.8L67.6,101.8z"/>
	<path id="XMLID_177_" d="M93.6,148.1c1,0,2,0,2.9,0l-0.1-0.1c0,1.9,0,3.9,0,5.8l0.1-0.1c-1.9,0-3.9,0-5.8,0l0.1,0.1
		c0-0.9,0-1.9,0-3c1.1,0,1.9,0,2.9,0C93.7,149.9,93.7,149,93.6,148.1L93.6,148.1z"/>
	<path id="XMLID_176_" d="M90.8,122.1c0-0.9,0-1.8,0-2.8c0.9,0,1.8,0,2.8,0c0,0.8,0,1.7,0,2.7C92.6,122,91.7,122,90.8,122.1
		L90.8,122.1z"/>
	<path id="XMLID_175_" d="M99.5,125c0-1,0-2,0-3l-0.1,0.1c0.9,0,1.8,0,2.8,0c0,0.9,0,1.8,0,2.8C101.3,124.9,100.4,124.9,99.5,125
		L99.5,125z"/>
	<path id="XMLID_174_" d="M99.5,122c-0.9,0-1.8,0-2.8,0c0-0.9,0-1.8,0-2.8c0.8,0,1.7,0,2.7,0C99.4,120.2,99.4,121.1,99.5,122
		L99.5,122z"/>
	<path id="XMLID_173_" d="M96.6,148.1c0-0.9,0-1.8,0-2.8c0.9,0,1.8,0,2.8,0c0,0.8,0,1.7,0,2.7C98.4,148.1,97.5,148.1,96.6,148.1
		L96.6,148.1z"/>
	<path id="XMLID_172_" d="M73.4,98.8c-0.9,0-1.8,0-2.8,0c0-0.9,0-1.8,0-2.8c0.8,0,1.7,0,2.7,0C73.4,97,73.4,98,73.4,98.8L73.4,98.8z
		"/>
	<path id="XMLID_171_" d="M79.2,145.2c-0.9,0-1.8,0-2.9,0c0-1,0-2,0-2.9l-0.1,0.1c1,0,2,0,2.9-0.1C79.2,143.3,79.2,144.3,79.2,145.2
		L79.2,145.2z"/>
	<path id="XMLID_170_" d="M67.6,101.7c-0.9,0-1.8,0-2.8,0c0-0.9,0-1.8,0-2.8c0.8,0,1.7,0,2.7,0C67.6,99.9,67.6,100.9,67.6,101.7
		L67.6,101.7z"/>
	<path id="XMLID_169_" d="M87.9,153.9c-1,0-2,0-3,0l0.1,0.1c0-1,0-2,0-2.9l-0.1,0.1c0.9,0,1.9,0,2.9,0
		C87.8,152.1,87.8,153,87.9,153.9L87.9,153.9z"/>
	<path id="XMLID_168_" d="M90.7,153.9c0,0.9,0,1.8,0,2.8c-0.9,0-1.8,0-2.8,0c0-0.9,0-1.9,0-2.8l-0.1,0.1
		C88.8,153.9,89.8,153.9,90.7,153.9L90.7,153.9z"/>
	<path id="XMLID_167_" d="M96.5,153.9c0.9,0,1.8,0,2.8,0c0,0.9,0,1.8,0,2.8c-0.8,0-1.7,0-2.7,0C96.6,155.7,96.6,154.8,96.5,153.9
		L96.5,153.9z"/>
	<path id="XMLID_166_" class="st3" d="M58.9,122c3.8,0,7.6,0,11.6,0c0-1,0-2,0-2.9c1.9,0,3.9,0,5.8,0c0,0.9,0,1.8,0,2.8
		c0.9,0.1,1.8,0.1,2.8,0.2c0,1,0,1.9,0,2.9l0.1,0c-1.9,0-3.8,0-5.7,0c0,1.1,0,2,0,2.9c2,0,3.8,0,5.7,0l0,0c0,0.9,0,1.9,0,2.9
		c1.2,0,2.1,0,2.9,0l-0.1,0c0,0.9,0,1.8,0,2.8c-0.9,0.1-1.8,0.1-2.9,0.2c0,1,0,1.9,0,2.8l0.1,0c-0.9,0-1.9,0-2.9,0
		c0,1.2,0,2.1,0,2.9l0-0.1c-1.8,0-3.7,0-5.7,0c0-0.9,0-1.8,0-2.8c0.8,0,1.7-0.1,2.7-0.2c0-1,0-1.9,0-2.8c0.9,0,1.9,0,2.8,0
		c0-1.1,0-1.9,0-2.7c-1,0-1.8,0-2.8,0c0,1,0,1.9,0,2.8c-0.9,0-1.8,0-2.9,0c0-2.9,0-5.7,0-8.6c-1,0-1.8,0-2.8,0
		c0,0.8-0.1,1.7-0.2,2.7c-0.9,0.1-1.8,0.1-2.7,0.2c0,0.9-0.1,1.7-0.1,2.7c-1.8,0-3.6,0-5.6,0c0-0.8,0-1.7,0-2.7
		c0.8-0.1,1.7-0.1,2.7-0.2c0-0.9,0-1.7,0-2.7c-0.8,0-1.7,0-2.8,0C58.9,123.9,58.9,123,58.9,122z"/>
	<path id="XMLID_165_" class="st3" d="M79.2,142.3c-1,0-2,0-2.9,0.1c0-1,0-2,0.1-2.9l0,0.1c1,0,2,0,2.9,0l0,0
		C79.1,140.4,79.1,141.4,79.2,142.3L79.2,142.3z"/>
	<path id="XMLID_162_" class="st3" d="M58.8,113.3c-4.8,0-9.5,0-14.3,0c0-4.8,0-9.4,0-14.3c4.7,0,9.4,0,14.3,0
		C58.8,103.7,58.8,108.4,58.8,113.3z M56,101.9c-2.9,0-5.7,0-8.5,0c0,2.9,0,5.7,0,8.4c2.9,0,5.7,0,8.5,0C56,107.5,56,104.8,56,101.9
		z"/>
	<path id="XMLID_159_" class="st3" d="M99.3,113.3c-4.8,0-9.5,0-14.3,0c0-4.8,0-9.4,0-14.3c4.7,0,9.4,0,14.3,0
		C99.3,103.7,99.3,108.4,99.3,113.3z M96.5,101.9c-2.9,0-5.7,0-8.5,0c0,2.9,0,5.7,0,8.5c2.9,0,5.7,0,8.5,0
		C96.5,107.5,96.5,104.7,96.5,101.9z"/>
	<path id="XMLID_156_" class="st3" d="M58.8,153.8c-4.8,0-9.5,0-14.3,0c0-4.8,0-9.5,0-14.3c4.7,0,9.4,0,14.3,0
		C58.8,144.2,58.8,149,58.8,153.8z M47.4,142.4c0,2.9,0,5.7,0,8.5c2.9,0,5.7,0,8.5,0c0-2.9,0-5.6,0-8.5
		C53.1,142.4,50.3,142.4,47.4,142.4z"/>
	<path id="XMLID_155_" class="st3" d="M76.3,116.2c-0.9,0-1.8,0-2.8,0c0-0.9,0-1.8,0-2.8c0.8,0,1.7,0,2.8,0
		C76.3,114.4,76.3,115.3,76.3,116.2L76.3,116.2z"/>
	<path id="XMLID_154_" class="st3" d="M90.8,136.5c0,1.9,0,3.9,0,5.8c-0.9,0-1.8,0-2.8,0c-0.1,1-0.1,1.8-0.2,2.8c-0.9,0-1.7,0-2.7,0
		c0-0.8,0-1.7,0-2.8c-1.1,0-2.1,0-3,0l0,0.1c0-0.9,0-1.9,0-2.9c-1.2,0-2.1,0-2.9,0l0,0c0-1,0-2,0-2.9l-0.1,0
		C83,136.5,86.9,136.5,90.8,136.5z"/>
	<path id="XMLID_153_" class="st3" d="M90.8,153.9c-1,0-2,0-2.9,0c0-0.9,0-1.8,0-2.9c-1,0-2,0-2.9,0c0-0.9,0-1.8,0-2.9
		c3,0,5.9,0,8.7,0c0,0.9,0,1.8,0,2.9c-1,0-1.8,0-2.9,0C90.8,152.1,90.8,153,90.8,153.9z"/>
	<path id="XMLID_152_" class="st3" d="M79.1,145.2c0-1,0-2,0-2.9l0,0.1c1,0,2,0,2.9,0l0-0.1c0,0.9,0,1.8,0,2.9
		C81,145.2,80.1,145.2,79.1,145.2z"/>
	<path id="XMLID_151_" class="st3" d="M82.1,151c-0.9,0-1.8,0-2.9,0c0-1.1,0-2,0-2.9c0.9,0,1.8,0,2.9,0
		C82.1,149.2,82.1,150.1,82.1,151z"/>
	<path id="XMLID_150_" class="st3" d="M85,151c0,1,0,2,0,2.9c-0.9,0-1.8,0-2.9,0c0-1.1,0-2,0-2.9C83,151,84,151,85,151z"/>
	<path id="XMLID_149_" class="st3" d="M90.8,124.9c0,1.9,0,3.9,0,5.8c-2.9,0-5.8,0-8.7,0l0.1,0c0-0.9,0-1.9,0-2.9
		c-1.2,0-2.1,0-2.9,0l0,0c0-1,0-2,0-2.9l-0.1,0C83,124.9,86.9,124.9,90.8,124.9z"/>
	<path id="XMLID_148_" d="M79.2,124.9c0,1,0,2,0,2.9c-1.9,0-3.7,0-5.7,0c0-1,0-1.8,0-2.9C75.4,124.9,77.3,124.9,79.2,124.9z"/>
	<path id="XMLID_147_" d="M79.2,136.5c0,1,0,2,0,2.9c-1,0-2,0-2.9,0c0-0.9,0-1.8,0-2.9C77.3,136.5,78.3,136.5,79.2,136.5z"/>
	<path id="XMLID_146_" d="M79.1,127.8c0.9,0,1.8,0,2.9,0c0,1.1,0,2,0,2.9c-0.9,0-1.8,0-2.9,0C79.1,129.7,79.1,128.7,79.1,127.8z"/>
	<path id="XMLID_145_" d="M73.4,133.7c0-0.9,0-1.8,0-2.8c0.9,0,1.8,0,2.8,0c0,0.8,0,1.7,0,2.7C75.2,133.6,74.3,133.6,73.4,133.7
		C73.3,133.6,73.4,133.7,73.4,133.7z"/>
	<path id="XMLID_144_" d="M82.1,142.3c-1,0-2,0-2.9,0c0-1,0-2,0-2.9c0.9,0,1.8,0,2.9,0C82.1,140.5,82.1,141.4,82.1,142.3z"/>
	<path id="XMLID_143_" d="M56,101.9c0,2.9,0,5.6,0,8.4c-2.8,0-5.6,0-8.5,0c0-2.7,0-5.5,0-8.4C50.2,101.9,53,101.9,56,101.9z"/>
	<path id="XMLID_142_" d="M96.5,101.9c0,2.9,0,5.6,0,8.5c-2.8,0-5.6,0-8.5,0c0-2.8,0-5.6,0-8.5C90.8,101.9,93.5,101.9,96.5,101.9z"
		/>
	<path id="XMLID_141_" d="M47.4,142.4c2.9,0,5.6,0,8.5,0c0,2.8,0,5.6,0,8.5c-2.8,0-5.6,0-8.5,0C47.4,148.1,47.4,145.3,47.4,142.4z"
		/>
</g>
</svg>
